<svg width="30" height="30" viewBox="0 0 30 30" fill="none" xmlns="http://www.w3.org/2000/svg">
<path d="M25.3125 14.0625H6.60984L13.7714 7.24123C14.1464 6.88405 14.1609 6.29061 13.8038 5.91561C13.447 5.54108 12.8536 5.52608 12.4781 5.88327L4.29937 13.6739C3.94547 14.0283 3.75 14.4989 3.75 15C3.75 15.5006 3.94547 15.9717 4.31578 16.3415L12.4786 24.1162C12.66 24.2892 12.8925 24.375 13.125 24.375C13.3725 24.375 13.62 24.2775 13.8042 24.0839C14.1614 23.7089 14.1469 23.1159 13.7719 22.7587L6.58031 15.9375H25.3125C25.83 15.9375 26.25 15.5175 26.25 15C26.25 14.4825 25.83 14.0625 25.3125 14.0625Z" fill="black"/>
</svg>
