<svg width="160" height="78" viewBox="0 0 160 78" fill="none" xmlns="http://www.w3.org/2000/svg">
<g clip-path="url(#clip0)">
<path d="M0.481689 58.0592L1.6617 57.5723L16.1108 51.5205L31.74 58.0592L25.864 69.7454L11.5112 71.6931L0.722508 60.4706L0.481689 58.0592Z" fill="#133444"/>
<path d="M28.4888 50.8712C25.9107 47.8799 22.2561 45.9342 18.254 45.4223C18.1577 45.4223 18.0854 45.3991 17.9891 45.3991C16.741 45.26 15.4804 45.26 14.2323 45.3991C14.136 45.3991 14.0638 45.4223 13.9674 45.4223C9.96538 45.9342 6.3108 47.8799 3.73264 50.8712L3.08243 51.9147L1.99875 53.6537L1.20405 54.929C1.19802 54.9638 1.18124 54.9961 1.15588 55.0217V55.0449L2.88978 56.0419L13.9674 62.3488L16.1107 63.5545V48.483L13.9674 49.4105V47.1613L16.1107 46.2338L18.254 47.1613L29.139 51.9147L28.4888 50.8712Z" fill="#C42370"/>
<path d="M32.2215 61.8155C32.206 64.2534 31.6326 66.658 30.542 68.8582C29.4515 71.0584 27.8707 73.0001 25.9121 74.5451C24.399 75.7328 22.6784 76.6514 20.8308 77.258C19.317 77.7464 17.7314 77.9969 16.1348 78C7.22453 78 0.0240479 70.3715 0.0240479 61.8155C0.0268971 60.5493 0.188615 59.2881 0.505685 58.0592L16.1348 66.963L31.764 58.0592C32.0613 59.291 32.2148 60.5509 32.2215 61.8155Z" fill="#1C4D6B"/>
<path d="M14.2324 45.3759L16.1108 46.2107L13.9675 47.1381V45.2832L14.2324 45.3759Z" fill="black"/>
<path d="M13.9675 49.4105L16.1108 48.4598V63.5313L13.9675 62.3256V49.4105Z" fill="black"/>
<path d="M16.1107 48.4598V63.5313L31.0896 55.0217L16.1107 48.4598Z" fill="#1D4259"/>
<path d="M16.1107 31.0927V48.4598L31.0896 55.0217L16.1107 31.0927Z" fill="#4B6B9A"/>
<path d="M16.1107 48.4598V63.5313L13.9674 62.3256L1.15588 55.0217C1.16191 54.9868 1.1787 54.9545 1.20405 54.929L3.08243 51.9378L13.9674 47.1845V49.4568L16.1107 48.4598Z" fill="#343535"/>
<path d="M16.1108 48.4598V63.5313L13.9675 62.3256L1.15592 55.0217H1.13184L1.15592 54.9985L13.9675 49.4105L16.1108 48.4598Z" fill="#3E5578"/>
<path d="M16.1108 31.0927V48.4598L1.13184 55.0217L16.1108 31.0927Z" fill="#6DB2D8"/>
<path d="M10.0421 76.7711C10.2589 76.8638 10.4997 76.9566 10.7164 77.0493C10.4997 76.9566 10.2829 76.8638 10.0421 76.7711Z" fill="#335F8A"/>
<path d="M10.7164 77.0262C10.944 77.1173 11.1772 77.1947 11.4148 77.258C11.174 77.1885 10.9572 77.1189 10.7164 77.0262Z" fill="#335F8A"/>
<path d="M12.0168 77.4435C12.2095 77.4899 12.3781 77.5363 12.5466 77.5826L12.0168 77.4435Z" fill="#335F8A"/>
<path d="M0.481638 58.0592L16.1108 66.963C15.9039 68.3169 15.5238 69.6409 14.9789 70.9048C13.7267 73.8263 11.1981 76.887 6.30945 74.5451C4.34633 72.9988 2.76266 71.0536 1.67187 68.8489C0.581076 66.6441 0.0101561 64.2344 0 61.7923C0.00433984 60.5338 0.16605 59.2804 0.481638 58.0592Z" fill="#6DB2D8"/>
<path d="M25.8639 74.5683C25.7676 74.6379 25.8639 74.5683 25.5509 74.8234L25.4064 74.9161L25.1896 75.0552L24.9247 75.2407C25.1896 75.0552 24.708 75.3799 24.6117 75.4494C24.52 75.4982 24.4315 75.5524 24.3468 75.6117L24.1782 75.7277C24.1181 75.7607 24.0616 75.7995 24.0096 75.8436C24.0096 75.8436 23.9374 75.9132 23.9133 75.9132C24.0096 75.8436 23.7929 75.9595 23.6966 76.0291C23.5874 76.0741 23.4826 76.1284 23.3835 76.1914L23.0464 76.3537L22.9019 76.4233C22.8055 76.4697 22.8537 76.4233 22.7574 76.4928C22.661 76.5624 22.5406 76.5856 22.4202 76.6551C22.2998 76.7247 22.4202 76.6552 22.0108 76.8406C22.4202 76.6552 22.0108 76.8406 21.7941 76.9334C22.0108 76.8406 21.4088 77.0725 21.1439 77.1653C21.0476 77.1885 20.5178 77.3508 20.4214 77.3739C20.3251 77.3971 20.2047 77.4435 20.1084 77.4667C19.9157 77.5131 19.7471 77.5594 19.5786 77.6058C19.5063 77.629 19.4341 77.629 19.3859 77.6522L19.2655 77.6754L18.9765 77.7449C18.8802 77.7681 18.8079 77.7681 18.7116 77.7913C18.6153 77.8145 18.543 77.8145 18.4708 77.8377C18.3986 77.8609 18.2781 77.8609 18.2059 77.8841C18.1642 77.878 18.1216 77.8862 18.0855 77.9072L17.8928 77.9304H17.7965C17.7243 77.9304 17.652 77.9536 17.5798 77.9536C17.5075 77.9536 17.3871 77.9768 17.2908 77.9768H14.8344C14.7381 77.9768 14.6418 77.9536 14.5455 77.9536C14.4724 77.9574 14.3992 77.9496 14.3287 77.9304H14.2324C14.1601 77.9304 14.0879 77.9072 14.0397 77.9072C13.998 77.9133 13.9554 77.9051 13.9193 77.8841C13.829 77.882 13.7397 77.8664 13.6544 77.8377C13.572 77.8356 13.4905 77.8199 13.4136 77.7913C13.3414 77.7681 13.245 77.7681 13.1487 77.7449L12.8597 77.6754L12.7393 77.6522C12.6723 77.6507 12.6065 77.6348 12.5467 77.6058C12.354 77.5594 12.1854 77.5131 12.0169 77.4667L11.7038 77.3739C11.6042 77.3536 11.5072 77.3225 11.4148 77.2812C11.174 77.2116 10.9573 77.1189 10.7164 77.0493C10.4756 76.9798 10.2589 76.8638 10.0421 76.7711C9.94581 76.7247 9.8254 76.6783 9.70499 76.632C9.588 76.5872 9.4752 76.5329 9.36785 76.4697C9.25867 76.4247 9.1539 76.3703 9.05478 76.3073C8.95845 76.261 8.83805 76.1914 8.74172 76.145C8.65637 76.1073 8.57561 76.0607 8.5009 76.0059C8.26008 75.8668 8.11559 75.774 8.26008 75.8668L8.11559 75.774L7.85069 75.6117L7.75436 75.5654L7.51354 75.4031C7.41721 75.3335 7.32089 75.2871 7.22456 75.2176C7.12823 75.148 7.00782 75.0784 6.9115 75.0089C6.81517 74.9393 6.71884 74.8466 6.64659 74.8002L6.55027 74.7306C6.46539 74.6746 6.3849 74.6126 6.30945 74.5451C11.1981 76.887 13.7026 73.78 14.9548 70.8816C15.4857 69.6131 15.8654 68.2907 16.0867 66.9398C16.2934 68.3087 16.6736 69.6481 17.2185 70.928C18.519 73.8032 20.9753 76.887 25.8639 74.5683Z" fill="#529BBA"/>
<path d="M19.6749 77.5826C19.8676 77.5363 20.0362 77.4899 20.2047 77.4435L19.6749 77.5826Z" fill="#335F8A"/>
<path d="M20.8068 77.258C21.0476 77.1885 21.2643 77.1189 21.5051 77.0262C21.2643 77.1189 21.0476 77.1885 20.8068 77.258Z" fill="#335F8A"/>
<path d="M21.4569 77.0493C21.6736 76.9566 21.9626 76.8638 22.1794 76.7479C21.9385 76.8638 21.6736 76.9566 21.4569 77.0493Z" fill="#335F8A"/>
<path d="M32.2215 61.8155C32.206 64.2534 31.6325 66.658 30.542 68.8582C29.4515 71.0584 27.8706 73.0001 25.912 74.5451C21.0234 76.887 18.4948 73.8032 17.2426 70.9048C16.7117 69.6363 16.332 68.3139 16.1107 66.963L31.7399 58.0592C32.0569 59.2881 32.2186 60.5493 32.2215 61.8155Z" fill="#4B6B9A"/>
<path d="M49.4641 77.5363H44.1661V43.4746H49.4641V45.886C51.5593 43.8688 53.9193 42.8717 56.5683 42.8717C59.723 42.8717 62.3239 43.9847 64.3468 46.2338C66.4178 48.4598 67.4533 51.2422 67.4533 54.6275C67.4533 57.9433 66.4178 60.6793 64.3708 62.8821C63.415 63.9406 62.2294 64.7841 60.8978 65.353C59.5662 65.922 58.1211 66.2024 56.6646 66.1746C53.9915 66.1746 51.5834 65.1312 49.4641 63.0676V77.5363ZM62.059 54.6275C62.059 52.5175 61.4569 50.8017 60.2769 49.4568C59.7252 48.812 59.0293 48.2956 58.2411 47.9463C57.453 47.597 56.5929 47.4237 55.7254 47.4396C53.7748 47.4396 52.2095 48.0888 51.0054 49.3873C49.8013 50.6857 49.1993 52.4016 49.1993 54.5116C49.1993 56.5752 49.8013 58.2911 51.0054 59.6359C52.2095 60.9808 53.7748 61.6068 55.7014 61.6068C56.5632 61.6241 57.4181 61.4538 58.202 61.1085C58.9859 60.7632 59.6788 60.2519 60.2288 59.6127C61.4328 58.2911 62.059 56.6216 62.059 54.6275Z" fill="#6DB2D8"/>
<path d="M71.9807 54.3493C71.9576 52.8312 72.26 51.3249 72.8691 49.9245C73.4782 48.5241 74.3809 47.2598 75.5208 46.2107C76.6532 45.1197 78.0025 44.2596 79.4879 43.682C80.9733 43.1043 82.5644 42.8209 84.1662 42.8485C87.5858 42.8485 90.4756 43.9847 92.8597 46.2338C95.2438 48.483 96.3757 51.2422 96.3757 54.5116C96.3757 57.8273 95.1957 60.5866 92.8357 62.8125C90.4756 65.0385 87.5376 66.1515 84.0698 66.1515C80.6021 66.1515 77.7604 65.0153 75.4485 62.7662C73.1367 60.517 71.9807 57.7114 71.9807 54.3493ZM77.3992 54.442C77.3992 56.6448 78.0012 58.3838 79.2294 59.6823C80.4576 60.9808 82.1433 61.63 84.1903 61.63C86.2372 61.63 87.9229 60.9808 89.1511 59.7055C90.3793 58.4302 91.0054 56.7144 91.0054 54.558C91.0054 52.4016 90.3793 50.7089 89.1511 49.4105C87.9229 48.112 86.2372 47.4628 84.1903 47.4628C82.1433 47.4628 80.5298 48.112 79.2775 49.4105C78.0253 50.7089 77.3992 52.3784 77.3992 54.442Z" fill="#6DB2D8"/>
<path d="M102.011 43.4746H107.309V45.4455C108.272 44.4716 109.139 43.7992 109.886 43.4282C110.735 43.0414 111.667 42.8508 112.607 42.8717C114.004 42.8717 115.448 43.3123 116.99 44.1934L114.557 48.854C113.546 48.1584 112.583 47.8105 111.619 47.8105C108.73 47.8105 107.285 49.8974 107.285 54.0942V65.5254H101.987L102.011 43.4746Z" fill="#6DB2D8"/>
<path d="M125.491 48.2279V65.5254H120.193V48.2279H117.929V43.4746H120.193V35.3823H125.491V43.4746H129.609V48.2279H125.491Z" fill="#6DB2D8"/>
<path d="M132.402 34.2925C132.399 33.8602 132.487 33.4318 132.661 33.0332C132.834 32.6346 133.091 32.2742 133.414 31.9738C134.062 31.35 134.941 30.9996 135.858 30.9996C136.775 30.9996 137.654 31.35 138.302 31.9738C138.631 32.2747 138.891 32.6385 139.065 33.0418C139.239 33.4451 139.324 33.8791 139.314 34.3157C139.322 34.7556 139.236 35.1923 139.062 35.5991C138.888 36.0059 138.63 36.374 138.302 36.6808C137.99 36.9974 137.612 37.2476 137.193 37.4153C136.774 37.5831 136.323 37.6646 135.87 37.6547C135.413 37.6625 134.96 37.5801 134.537 37.4126C134.115 37.2451 133.732 36.996 133.414 36.6808C133.084 36.3704 132.825 35.9983 132.651 35.5875C132.477 35.1768 132.392 34.736 132.402 34.2925ZM138.495 43.4746V65.5254H133.197V43.4746H138.495Z" fill="#6DB2D8"/>
<path d="M158.507 47.2309L154.124 49.48C153.426 48.112 152.583 47.4396 151.571 47.4396C151.108 47.438 150.662 47.6034 150.319 47.9033C150.152 48.054 150.02 48.2376 149.933 48.4416C149.845 48.6456 149.805 48.8653 149.813 49.0858C149.813 49.9206 150.825 50.7785 152.872 51.59C155.689 52.7494 157.568 53.816 158.531 54.813C159.494 55.8101 160 57.1085 160 58.778C160.022 59.786 159.813 60.7863 159.389 61.7079C158.964 62.6295 158.334 63.45 157.544 64.111C155.973 65.4699 153.923 66.1998 151.812 66.1514C147.959 66.1514 145.262 64.3429 143.648 60.7489L148.176 58.7316C148.802 59.7982 149.284 60.4706 149.621 60.7489C150.245 61.3151 151.075 61.6231 151.933 61.6068C153.715 61.6068 154.606 60.8184 154.606 59.2417C154.606 58.3374 153.907 57.4795 152.535 56.7143C152.005 56.4593 151.475 56.2042 150.945 55.9724C150.415 55.7405 149.862 55.4854 149.332 55.2304C147.791 54.5116 146.707 53.7928 146.081 53.0508C145.286 52.1233 144.877 50.9408 144.877 49.5032C144.877 47.5787 145.551 46.002 146.924 44.7499C148.295 43.5055 150.121 42.8308 152.005 42.8717C154.895 42.8485 157.062 44.3093 158.507 47.2309Z" fill="#6DB2D8"/>
</g>
<path d="M36.4932 21.168V9.045H36.9612C37.0392 9.045 37.1022 9.063 37.1502 9.099C37.1982 9.129 37.2252 9.186 37.2312 9.27L37.3122 10.656C37.7082 10.116 38.1702 9.687 38.6982 9.369C39.2322 9.051 39.8292 8.892 40.4892 8.892C41.5932 8.892 42.4512 9.273 43.0632 10.035C43.6752 10.797 43.9812 11.94 43.9812 13.464C43.9812 14.118 43.8942 14.73 43.7202 15.3C43.5522 15.864 43.3032 16.356 42.9732 16.776C42.6432 17.19 42.2352 17.517 41.7492 17.757C41.2692 17.997 40.7142 18.117 40.0842 18.117C39.4722 18.117 38.9442 18.006 38.5002 17.784C38.0562 17.562 37.6722 17.232 37.3482 16.794V21.168H36.4932ZM40.2462 9.585C39.6522 9.585 39.1122 9.741 38.6262 10.053C38.1462 10.359 37.7202 10.788 37.3482 11.34V16.038C37.6902 16.554 38.0682 16.917 38.4822 17.127C38.9022 17.337 39.3792 17.442 39.9132 17.442C40.4412 17.442 40.9032 17.346 41.2992 17.154C41.6952 16.962 42.0252 16.692 42.2892 16.344C42.5592 15.99 42.7602 15.57 42.8922 15.084C43.0302 14.592 43.0992 14.052 43.0992 13.464C43.0992 12.132 42.8532 11.154 42.3612 10.53C41.8752 9.9 41.1702 9.585 40.2462 9.585ZM49.537 8.901C50.179 8.901 50.752 9.012 51.256 9.234C51.766 9.45 52.195 9.759 52.543 10.161C52.891 10.563 53.155 11.049 53.335 11.619C53.521 12.183 53.614 12.816 53.614 13.518C53.614 14.22 53.521 14.853 53.335 15.417C53.155 15.981 52.891 16.464 52.543 16.866C52.195 17.268 51.766 17.577 51.256 17.793C50.752 18.009 50.179 18.117 49.537 18.117C48.895 18.117 48.319 18.009 47.809 17.793C47.305 17.577 46.876 17.268 46.522 16.866C46.174 16.464 45.907 15.981 45.721 15.417C45.541 14.853 45.451 14.22 45.451 13.518C45.451 12.816 45.541 12.183 45.721 11.619C45.907 11.049 46.174 10.563 46.522 10.161C46.876 9.759 47.305 9.45 47.809 9.234C48.319 9.012 48.895 8.901 49.537 8.901ZM49.537 17.442C50.071 17.442 50.536 17.352 50.932 17.172C51.334 16.986 51.667 16.722 51.931 16.38C52.201 16.038 52.402 15.627 52.534 15.147C52.666 14.661 52.732 14.118 52.732 13.518C52.732 12.924 52.666 12.384 52.534 11.898C52.402 11.412 52.201 10.998 51.931 10.656C51.667 10.308 51.334 10.041 50.932 9.855C50.536 9.669 50.071 9.576 49.537 9.576C49.003 9.576 48.535 9.669 48.133 9.855C47.737 10.041 47.404 10.308 47.134 10.656C46.87 10.998 46.669 11.412 46.531 11.898C46.399 12.384 46.333 12.924 46.333 13.518C46.333 14.118 46.399 14.661 46.531 15.147C46.669 15.627 46.87 16.038 47.134 16.38C47.404 16.722 47.737 16.986 48.133 17.172C48.535 17.352 49.003 17.442 49.537 17.442ZM54.6043 9.045H55.2613C55.3453 9.045 55.4143 9.069 55.4683 9.117C55.5223 9.159 55.5583 9.207 55.5763 9.261L57.8353 16.326C57.8773 16.464 57.9103 16.596 57.9343 16.722C57.9583 16.848 57.9823 16.974 58.0063 17.1C58.0363 16.974 58.0693 16.848 58.1053 16.722C58.1413 16.596 58.1833 16.464 58.2313 16.326L60.6343 9.198C60.6763 9.066 60.7603 9 60.8863 9H61.2373C61.3693 9 61.4563 9.066 61.4983 9.198L63.8652 16.326C63.9553 16.596 64.0273 16.857 64.0813 17.109C64.1053 16.983 64.1293 16.857 64.1533 16.731C64.1833 16.599 64.2223 16.464 64.2703 16.326L66.5383 9.261C66.5863 9.117 66.6883 9.045 66.8443 9.045H67.4743L64.4773 18H63.8473C63.7513 18 63.6823 17.937 63.6403 17.811L61.1833 10.539C61.1533 10.449 61.1263 10.359 61.1023 10.269C61.0783 10.179 61.0573 10.089 61.0393 9.999C61.0213 10.089 61.0003 10.179 60.9763 10.269C60.9583 10.359 60.9343 10.449 60.9043 10.539L58.4203 17.811C58.3843 17.937 58.3123 18 58.2043 18H57.6013L54.6043 9.045ZM72.5107 8.901C73.0147 8.901 73.4797 8.988 73.9057 9.162C74.3377 9.336 74.7097 9.591 75.0217 9.927C75.3397 10.257 75.5857 10.665 75.7597 11.151C75.9397 11.637 76.0297 12.195 76.0297 12.825C76.0297 12.957 76.0087 13.047 75.9667 13.095C75.9307 13.143 75.8707 13.167 75.7867 13.167H69.3157V13.338C69.3157 14.01 69.3937 14.601 69.5497 15.111C69.7057 15.621 69.9277 16.05 70.2157 16.398C70.5037 16.74 70.8517 16.998 71.2597 17.172C71.6677 17.346 72.1237 17.433 72.6277 17.433C73.0777 17.433 73.4677 17.385 73.7977 17.289C74.1277 17.187 74.4037 17.076 74.6257 16.956C74.8537 16.83 75.0337 16.719 75.1657 16.623C75.2977 16.521 75.3937 16.47 75.4537 16.47C75.5317 16.47 75.5917 16.5 75.6337 16.56L75.8677 16.848C75.7237 17.028 75.5317 17.196 75.2917 17.352C75.0577 17.508 74.7937 17.643 74.4997 17.757C74.2117 17.865 73.8997 17.952 73.5637 18.018C73.2337 18.084 72.9007 18.117 72.5647 18.117C71.9527 18.117 71.3947 18.012 70.8907 17.802C70.3867 17.586 69.9547 17.274 69.5947 16.866C69.2347 16.458 68.9557 15.96 68.7577 15.372C68.5657 14.778 68.4697 14.1 68.4697 13.338C68.4697 12.696 68.5597 12.105 68.7397 11.565C68.9257 11.019 69.1897 10.551 69.5317 10.161C69.8797 9.765 70.3027 9.456 70.8007 9.234C71.3047 9.012 71.8747 8.901 72.5107 8.901ZM72.5197 9.54C72.0577 9.54 71.6437 9.612 71.2777 9.756C70.9117 9.9 70.5937 10.107 70.3237 10.377C70.0597 10.647 69.8437 10.971 69.6757 11.349C69.5137 11.727 69.4057 12.15 69.3517 12.618H75.2557C75.2557 12.138 75.1897 11.709 75.0577 11.331C74.9257 10.947 74.7397 10.623 74.4997 10.359C74.2597 10.095 73.9717 9.894 73.6357 9.756C73.2997 9.612 72.9277 9.54 72.5197 9.54ZM78.3291 18V9.045H78.7791C78.8811 9.045 78.9531 9.066 78.9951 9.108C79.0431 9.15 79.0701 9.222 79.0761 9.324L79.1481 11.214C79.4361 10.488 79.8201 9.921 80.3001 9.513C80.7801 9.099 81.3711 8.892 82.0731 8.892C82.3431 8.892 82.5921 8.922 82.8201 8.982C83.0481 9.036 83.2641 9.117 83.4681 9.225L83.3511 9.819C83.3331 9.915 83.2731 9.963 83.1711 9.963C83.1351 9.963 83.0841 9.951 83.0181 9.927C82.9521 9.903 82.8681 9.876 82.7661 9.846C82.6701 9.816 82.5501 9.789 82.4061 9.765C82.2621 9.741 82.0971 9.729 81.9111 9.729C81.2331 9.729 80.6751 9.939 80.2371 10.359C79.8051 10.779 79.4541 11.385 79.1841 12.177V18H78.3291ZM88.8584 8.901C89.3624 8.901 89.8274 8.988 90.2534 9.162C90.6854 9.336 91.0574 9.591 91.3694 9.927C91.6874 10.257 91.9334 10.665 92.1074 11.151C92.2874 11.637 92.3774 12.195 92.3774 12.825C92.3774 12.957 92.3564 13.047 92.3144 13.095C92.2784 13.143 92.2184 13.167 92.1344 13.167H85.6634V13.338C85.6634 14.01 85.7414 14.601 85.8974 15.111C86.0534 15.621 86.2754 16.05 86.5634 16.398C86.8514 16.74 87.1994 16.998 87.6074 17.172C88.0154 17.346 88.4714 17.433 88.9754 17.433C89.4254 17.433 89.8154 17.385 90.1454 17.289C90.4754 17.187 90.7514 17.076 90.9734 16.956C91.2014 16.83 91.3814 16.719 91.5134 16.623C91.6454 16.521 91.7414 16.47 91.8014 16.47C91.8794 16.47 91.9394 16.5 91.9814 16.56L92.2154 16.848C92.0714 17.028 91.8794 17.196 91.6394 17.352C91.4054 17.508 91.1414 17.643 90.8474 17.757C90.5594 17.865 90.2474 17.952 89.9114 18.018C89.5814 18.084 89.2484 18.117 88.9124 18.117C88.3004 18.117 87.7424 18.012 87.2384 17.802C86.7344 17.586 86.3024 17.274 85.9424 16.866C85.5824 16.458 85.3034 15.96 85.1054 15.372C84.9134 14.778 84.8174 14.1 84.8174 13.338C84.8174 12.696 84.9074 12.105 85.0874 11.565C85.2734 11.019 85.5374 10.551 85.8794 10.161C86.2274 9.765 86.6504 9.456 87.1484 9.234C87.6524 9.012 88.2224 8.901 88.8584 8.901ZM88.8674 9.54C88.4054 9.54 87.9914 9.612 87.6254 9.756C87.2594 9.9 86.9414 10.107 86.6714 10.377C86.4074 10.647 86.1914 10.971 86.0234 11.349C85.8614 11.727 85.7534 12.15 85.6994 12.618H91.6034C91.6034 12.138 91.5374 11.709 91.4054 11.331C91.2734 10.947 91.0874 10.623 90.8474 10.359C90.6074 10.095 90.3194 9.894 89.9834 9.756C89.6474 9.612 89.2754 9.54 88.8674 9.54ZM101.022 18C100.872 18 100.785 17.922 100.761 17.766L100.671 16.353C100.275 16.893 99.8098 17.322 99.2758 17.64C98.7478 17.958 98.1538 18.117 97.4938 18.117C96.3958 18.117 95.5378 17.736 94.9198 16.974C94.3078 16.212 94.0018 15.069 94.0018 13.545C94.0018 12.891 94.0858 12.282 94.2538 11.718C94.4278 11.148 94.6798 10.656 95.0098 10.242C95.3458 9.822 95.7538 9.492 96.2338 9.252C96.7198 9.012 97.2778 8.892 97.9078 8.892C98.5138 8.892 99.0388 9.006 99.4828 9.234C99.9268 9.456 100.311 9.783 100.635 10.215V4.905H101.499V18H101.022ZM97.7368 17.424C98.3308 17.424 98.8678 17.271 99.3478 16.965C99.8278 16.659 100.257 16.233 100.635 15.687V10.962C100.287 10.452 99.9028 10.092 99.4828 9.882C99.0688 9.672 98.5978 9.567 98.0698 9.567C97.5418 9.567 97.0798 9.663 96.6838 9.855C96.2878 10.047 95.9548 10.32 95.6848 10.674C95.4208 11.022 95.2198 11.442 95.0818 11.934C94.9498 12.42 94.8838 12.957 94.8838 13.545C94.8838 14.877 95.1298 15.858 95.6218 16.488C96.1138 17.112 96.8188 17.424 97.7368 17.424ZM108.073 18V4.905H108.937V10.611C109.333 10.083 109.792 9.666 110.314 9.36C110.836 9.054 111.424 8.901 112.078 8.901C113.176 8.901 114.031 9.282 114.643 10.044C115.261 10.8 115.57 11.94 115.57 13.464C115.57 14.118 115.483 14.73 115.309 15.3C115.141 15.864 114.889 16.356 114.553 16.776C114.223 17.19 113.815 17.517 113.329 17.757C112.849 17.997 112.294 18.117 111.664 18.117C111.04 18.117 110.503 17.997 110.053 17.757C109.603 17.511 109.216 17.151 108.892 16.677L108.838 17.775C108.82 17.925 108.739 18 108.595 18H108.073ZM111.835 9.585C111.241 9.585 110.704 9.738 110.224 10.044C109.744 10.35 109.315 10.776 108.937 11.322V16.047C109.279 16.563 109.657 16.926 110.071 17.136C110.485 17.34 110.962 17.442 111.502 17.442C112.03 17.442 112.492 17.346 112.888 17.154C113.284 16.962 113.614 16.692 113.878 16.344C114.148 15.99 114.349 15.57 114.481 15.084C114.619 14.592 114.688 14.052 114.688 13.464C114.688 12.132 114.442 11.154 113.95 10.53C113.458 9.9 112.753 9.585 111.835 9.585ZM119.604 20.88C119.568 20.964 119.52 21.033 119.46 21.087C119.406 21.141 119.325 21.168 119.217 21.168H118.605L120.18 17.667L116.391 9.045H117.102C117.192 9.045 117.261 9.069 117.309 9.117C117.363 9.159 117.402 9.207 117.426 9.261L120.441 16.227C120.477 16.317 120.507 16.41 120.531 16.506C120.561 16.596 120.588 16.689 120.612 16.785C120.642 16.689 120.672 16.596 120.702 16.506C120.738 16.41 120.774 16.317 120.81 16.227L123.789 9.261C123.819 9.195 123.861 9.144 123.915 9.108C123.969 9.066 124.029 9.045 124.095 9.045H124.752L119.604 20.88Z" fill="#335F8A"/>
<defs>
<clipPath id="clip0">
<rect width="160" height="47" fill="white" transform="translate(0 31)"/>
</clipPath>
</defs>
</svg>
