<svg width="26" height="26" viewBox="0 0 26 26" fill="none" xmlns="http://www.w3.org/2000/svg">
<g clip-path="url(#clip0)">
<path d="M25.0766 3.58663C24.5179 3.5357 24.0239 3.94728 23.9729 4.50587L23.8384 5.98203C21.5553 2.39657 17.5921 0 13 0C8.05998 0 3.70646 2.81948 1.54531 7.05118C1.29018 7.55071 1.48833 8.16248 1.98787 8.4176C2.4875 8.67273 3.09916 8.47463 3.35429 7.97504C5.18328 4.39375 8.85613 2.03125 13 2.03125C16.777 2.03125 20.1855 3.99806 22.1383 7.07931L20.6901 6.04505C20.2337 5.71909 19.5994 5.82481 19.2734 6.28123C18.9474 6.73771 19.0532 7.37196 19.5096 7.69798L23.9009 10.8343C24.5445 11.2931 25.4322 10.8731 25.5026 10.1L25.9957 4.69031C26.0467 4.13166 25.6352 3.63756 25.0766 3.58663Z" fill="black"/>
<path d="M24.0121 17.5824C23.5125 17.3274 22.9008 17.5255 22.6457 18.025C20.8167 21.6063 17.1438 23.9688 12.9999 23.9688C9.22299 23.9688 5.81445 22.002 3.86171 18.9207L5.30983 19.955C5.76631 20.281 6.40056 20.1752 6.72658 19.7188C7.05255 19.2623 6.94682 18.6281 6.4904 18.3021L2.09909 15.1658C1.46336 14.7116 0.568491 15.119 0.497398 15.9L0.00426094 21.3097C-0.0466727 21.8683 0.364909 22.3624 0.923452 22.4134C1.48276 22.4642 1.9762 22.0522 2.02708 21.4941L2.16165 20.018C4.44467 23.6035 8.40785 26 12.9999 26C17.94 26 22.2935 23.1806 24.4547 18.9489C24.7098 18.4493 24.5116 17.8376 24.0121 17.5824Z" fill="black"/>
</g>
<defs>
<clipPath id="clip0">
<rect width="26" height="26" fill="white"/>
</clipPath>
</defs>
</svg>
