<svg width="54" height="54" viewBox="0 0 54 54" fill="none" xmlns="http://www.w3.org/2000/svg">
<g clip-path="url(#clip0)">
<path d="M27 5.22581C28.4431 5.22581 29.6129 4.05597 29.6129 2.6129C29.6129 1.16984 28.4431 0 27 0C25.5569 0 24.3871 1.16984 24.3871 2.6129C24.3871 4.05597 25.5569 5.22581 27 5.22581Z" fill="#4B6B9A"/>
<path d="M27 54C28.4431 54 29.6129 52.8302 29.6129 51.3871C29.6129 49.944 28.4431 48.7742 27 48.7742C25.5569 48.7742 24.3871 49.944 24.3871 51.3871C24.3871 52.8302 25.5569 54 27 54Z" fill="#ECEEEE"/>
<path d="M14.8065 8.44838C16.2496 8.44838 17.4194 7.27855 17.4194 5.83548C17.4194 4.39241 16.2496 3.22258 14.8065 3.22258C13.3634 3.22258 12.1936 4.39241 12.1936 5.83548C12.1936 7.27855 13.3634 8.44838 14.8065 8.44838Z" fill="#77807F"/>
<path d="M41.4581 46.8581C42.1549 48.0774 41.7194 49.6452 40.5 50.429C39.2807 51.1258 37.713 50.6903 36.9291 49.471C36.2323 48.2516 36.6678 46.6839 37.8872 45.9C39.1065 45.2032 40.7613 45.6387 41.4581 46.8581Z" fill="#F2F4F4"/>
<path d="M7.14191 12.5419C8.36126 13.2387 8.79674 14.8065 8.09997 16.1129C7.4032 17.3323 5.83545 17.7678 4.529 17.071C3.30965 16.3742 2.87416 14.8065 3.57094 13.5C4.26771 12.1936 5.92255 11.8452 7.14191 12.5419Z" fill="#9FAAA9"/>
<path d="M49.4709 36.929C50.6903 37.6258 51.1257 39.1935 50.429 40.5C49.7322 41.7193 48.1644 42.1548 46.858 41.4581C45.6386 40.7613 45.2031 39.1935 45.8999 37.8871C46.5967 36.6677 48.1644 36.2323 49.4709 36.929Z" fill="#F2F7F7"/>
<path d="M2.6129 29.6129C4.05597 29.6129 5.22581 28.4431 5.22581 27C5.22581 25.5569 4.05597 24.3871 2.6129 24.3871C1.16984 24.3871 0 25.5569 0 27C0 28.4431 1.16984 29.6129 2.6129 29.6129Z" fill="#B2BBBA"/>
<path d="M51.3871 29.6129C52.8301 29.6129 54 28.4431 54 27C54 25.5569 52.8301 24.3871 51.3871 24.3871C49.944 24.3871 48.7742 25.5569 48.7742 27C48.7742 28.4431 49.944 29.6129 51.3871 29.6129Z" fill="white"/>
<path d="M4.52899 36.929C5.74835 36.2323 7.31609 36.6677 8.09996 37.8871C8.79674 39.1064 8.36125 40.6742 7.1419 41.4581C5.92254 42.1548 4.3548 41.7193 3.57093 40.5C2.78706 39.2806 3.30964 37.7129 4.52899 36.929Z" fill="#C5CCCB"/>
<path d="M46.858 12.5419C48.0773 11.8452 49.6451 12.2807 50.429 13.5C51.1257 14.7194 50.6903 16.2871 49.4709 17.071C48.2515 17.7677 46.6838 17.3323 45.8999 16.1129C45.2031 14.8936 45.6386 13.2387 46.858 12.5419Z" fill="#335F8A"/>
<path d="M12.5419 46.8581C13.2387 45.6387 14.8064 45.2032 16.1129 45.9C17.3322 46.5968 17.7677 48.1645 17.0709 49.471C16.3742 50.6903 14.8064 51.1258 13.5 50.429C12.2806 49.6452 11.8451 48.0774 12.5419 46.8581Z" fill="#D9DDDD"/>
<path d="M36.9291 4.52904C37.6259 3.30969 39.1936 2.8742 40.5 3.57098C41.7194 4.26775 42.1549 5.83549 41.4581 7.14194C40.7613 8.3613 39.1936 8.79678 37.8872 8.10001C36.6678 7.40323 36.2323 5.83549 36.9291 4.52904Z" fill="#4B6B9A"/>
</g>
<defs>
<clipPath id="clip0">
<rect width="54" height="54" fill="white"/>
</clipPath>
</defs>
</svg>
